<?xml version="1.0" encoding="utf-8"?>
<!-- Generator: Adobe Illustrator 15.1.0, SVG Export Plug-In . SVG Version: 6.00 Build 0)  -->
<!DOCTYPE svg PUBLIC "-//W3C//DTD SVG 1.1//EN" "http://www.w3.org/Graphics/SVG/1.1/DTD/svg11.dtd">
<svg version="1.1" id="レイヤー_1" xmlns="http://www.w3.org/2000/svg" xmlns:xlink="http://www.w3.org/1999/xlink" x="0px"
	 y="0px" width="152.831px" height="17.291px" viewBox="0 0 152.831 17.291" enable-background="new 0 0 152.831 17.291"
	 xml:space="preserve">
<g>
	<path fill="#231815" d="M0,0.285h3.374v9.05c0,1.437,0.042,2.367,0.125,2.793c0.145,0.684,0.488,1.233,1.032,1.647
		c0.543,0.414,1.286,0.621,2.229,0.621c0.957,0,1.679-0.195,2.166-0.587s0.779-0.872,0.877-1.442
		c0.099-0.569,0.148-1.516,0.148-2.838V0.285h3.374v8.777c0,2.005-0.091,3.423-0.274,4.251c-0.182,0.828-0.519,1.527-1.008,2.098
		c-0.49,0.569-1.146,1.023-1.966,1.361c-0.821,0.339-1.892,0.508-3.214,0.508c-1.596,0-2.806-0.185-3.63-0.553
		c-0.825-0.369-1.476-0.848-1.955-1.437c-0.479-0.589-0.794-1.206-0.946-1.853C0.11,12.481,0,11.067,0,9.198V0.285z"/>
	<path fill="#231815" d="M16.026,11.558l3.283-0.318c0.197,1.102,0.598,1.91,1.202,2.428c0.604,0.517,1.419,0.774,2.445,0.774
		c1.086,0,1.905-0.229,2.456-0.689c0.551-0.459,0.827-0.997,0.827-1.612c0-0.396-0.116-0.731-0.348-1.009
		c-0.232-0.277-0.637-0.519-1.214-0.724c-0.396-0.137-1.296-0.381-2.702-0.73c-1.809-0.447-3.078-0.999-3.807-1.652
		c-1.026-0.919-1.539-2.04-1.539-3.362c0-0.851,0.241-1.647,0.724-2.388c0.482-0.741,1.178-1.305,2.086-1.692
		C20.348,0.194,21.444,0,22.729,0c2.097,0,3.676,0.46,4.736,1.379s1.617,2.146,1.67,3.682L25.76,5.209
		c-0.145-0.858-0.454-1.476-0.929-1.852c-0.475-0.376-1.188-0.564-2.137-0.564c-0.98,0-1.748,0.202-2.303,0.604
		c-0.357,0.258-0.536,0.604-0.536,1.037c0,0.395,0.167,0.733,0.501,1.015c0.426,0.357,1.459,0.729,3.101,1.117
		c1.641,0.388,2.855,0.789,3.642,1.203s1.402,0.98,1.847,1.698c0.444,0.719,0.667,1.605,0.667,2.662c0,0.957-0.266,1.854-0.798,2.69
		c-0.532,0.836-1.284,1.457-2.257,1.863s-2.185,0.609-3.636,0.609c-2.113,0-3.735-0.487-4.867-1.464
		C16.923,14.851,16.247,13.428,16.026,11.558z"/>
	<path fill="#231815" d="M38.949,16.995V0.285h7.101c1.786,0,3.083,0.15,3.893,0.45c0.809,0.3,1.457,0.834,1.943,1.602
		s0.729,1.645,0.729,2.633c0,1.254-0.369,2.29-1.105,3.106c-0.737,0.817-1.839,1.332-3.306,1.544
		c0.729,0.426,1.332,0.893,1.807,1.402c0.475,0.51,1.115,1.413,1.92,2.713l2.041,3.26h-4.035l-2.439-3.636
		c-0.867-1.3-1.459-2.118-1.778-2.456c-0.319-0.339-0.657-0.57-1.015-0.695c-0.357-0.126-0.923-0.189-1.698-0.189h-0.684v6.977
		H38.949z M42.322,7.352h2.497c1.619,0,2.629-0.068,3.032-0.205s0.718-0.373,0.946-0.707c0.228-0.334,0.342-0.752,0.342-1.253
		c0-0.563-0.15-1.017-0.45-1.362s-0.724-0.564-1.271-0.655c-0.273-0.038-1.094-0.057-2.462-0.057h-2.633V7.352z"/>
	<path fill="#231815" d="M55.112,8.743c0-1.702,0.254-3.131,0.764-4.286c0.38-0.851,0.898-1.615,1.556-2.292
		c0.657-0.676,1.377-1.178,2.16-1.504C60.632,0.221,61.833,0,63.193,0c2.462,0,4.432,0.764,5.91,2.291s2.217,3.651,2.217,6.372
		c0,2.697-0.733,4.809-2.2,6.332c-1.466,1.523-3.427,2.285-5.881,2.285c-2.485,0-4.461-0.758-5.927-2.274
		C55.845,13.49,55.112,11.402,55.112,8.743z M58.588,8.628c0,1.892,0.437,3.327,1.311,4.303s1.983,1.465,3.329,1.465
		c1.345,0,2.449-0.484,3.311-1.454c0.862-0.969,1.294-2.422,1.294-4.359c0-1.915-0.42-3.343-1.26-4.286
		c-0.84-0.942-1.955-1.414-3.345-1.414s-2.512,0.477-3.363,1.431S58.588,6.706,58.588,8.628z"/>
	<path fill="#231815" d="M89.022,16.995h-3.671l-1.459-3.796h-6.679l-1.379,3.796h-3.579l6.508-16.71h3.568L89.022,16.995z
		 M82.81,10.384l-2.303-6.201l-2.257,6.201H82.81z"/>
	<path fill="#231815" d="M90.8,0.285h6.167c1.39,0,2.45,0.106,3.18,0.319c0.98,0.289,1.82,0.802,2.52,1.539
		c0.698,0.737,1.23,1.64,1.596,2.707c0.364,1.068,0.547,2.384,0.547,3.95c0,1.375-0.171,2.561-0.513,3.557
		c-0.418,1.216-1.015,2.199-1.79,2.952c-0.585,0.569-1.375,1.014-2.371,1.333c-0.744,0.235-1.74,0.354-2.986,0.354H90.8V0.285z
		 M94.174,3.112V14.18h2.519c0.942,0,1.623-0.053,2.041-0.159c0.547-0.137,1.001-0.369,1.361-0.695
		c0.361-0.327,0.656-0.865,0.884-1.613c0.229-0.748,0.342-1.769,0.342-3.061c0-1.292-0.113-2.283-0.342-2.975
		c-0.228-0.691-0.547-1.231-0.957-1.618c-0.411-0.388-0.932-0.65-1.562-0.787c-0.472-0.106-1.395-0.16-2.771-0.16H94.174z"/>
	<path fill="#231815" d="M107.669,16.995V0.285h12.391v2.827h-9.017v3.705h8.39v2.815h-8.39v4.548h9.335v2.815H107.669z"/>
	<path fill="#231815" d="M123.251,16.995V0.285h7.101c1.786,0,3.084,0.15,3.893,0.45c0.81,0.3,1.457,0.834,1.944,1.602
		c0.485,0.768,0.729,1.645,0.729,2.633c0,1.254-0.369,2.29-1.106,3.106c-0.736,0.817-1.839,1.332-3.306,1.544
		c0.729,0.426,1.332,0.893,1.807,1.402c0.476,0.51,1.115,1.413,1.921,2.713l2.041,3.26h-4.035l-2.439-3.636
		c-0.866-1.3-1.459-2.118-1.778-2.456c-0.319-0.339-0.657-0.57-1.015-0.695c-0.357-0.126-0.923-0.189-1.698-0.189h-0.684v6.977
		H123.251z M126.625,7.352h2.496c1.618,0,2.629-0.068,3.032-0.205c0.402-0.137,0.718-0.373,0.945-0.707
		c0.229-0.334,0.343-0.752,0.343-1.253c0-0.563-0.15-1.017-0.45-1.362c-0.301-0.346-0.725-0.564-1.271-0.655
		c-0.273-0.038-1.094-0.057-2.462-0.057h-2.633V7.352z"/>
	<path fill="#231815" d="M139.244,11.558l3.282-0.318c0.198,1.102,0.599,1.91,1.203,2.428c0.604,0.517,1.419,0.774,2.444,0.774
		c1.087,0,1.905-0.229,2.457-0.689c0.551-0.459,0.826-0.997,0.826-1.612c0-0.396-0.116-0.731-0.348-1.009
		c-0.232-0.277-0.637-0.519-1.214-0.724c-0.396-0.137-1.296-0.381-2.701-0.73c-1.81-0.447-3.078-0.999-3.808-1.652
		c-1.025-0.919-1.539-2.04-1.539-3.362c0-0.851,0.241-1.647,0.725-2.388c0.482-0.741,1.178-1.305,2.085-1.692
		C143.565,0.194,144.662,0,145.946,0c2.098,0,3.676,0.46,4.736,1.379c1.06,0.919,1.616,2.146,1.67,3.682l-3.374,0.148
		c-0.145-0.858-0.454-1.476-0.93-1.852c-0.475-0.376-1.188-0.564-2.137-0.564c-0.98,0-1.748,0.202-2.303,0.604
		c-0.357,0.258-0.535,0.604-0.535,1.037c0,0.395,0.167,0.733,0.501,1.015c0.426,0.357,1.459,0.729,3.101,1.117
		c1.642,0.388,2.855,0.789,3.642,1.203s1.402,0.98,1.847,1.698c0.444,0.719,0.667,1.605,0.667,2.662c0,0.957-0.267,1.854-0.798,2.69
		c-0.532,0.836-1.284,1.457-2.257,1.863s-2.186,0.609-3.637,0.609c-2.112,0-3.734-0.487-4.867-1.464
		C140.14,14.851,139.463,13.428,139.244,11.558z"/>
</g>
</svg>
